<?xml version="1.0" encoding="utf-8"?>
<svg viewBox="42.8 -72.149 948.792 624.732" xmlns="http://www.w3.org/2000/svg">
  <defs>
    <filter id="a">
      <feGaussianBlur stdDeviation="5.80984"/>
    </filter>
  </defs>
  <g transform="matrix(0.397763, 0, 0, 0.397763, 282.112309, 46.616429)">
    <path d="M 661.619 1013.054 L 1078.983 1134.395 C 1156.284 1068.965 1227.638 998.078 1304.934 948.996 C 1406.019 976.264 1667.646 1036.244 1709.266 1052.6 L 1608.187 741.789 L 1762.781 490.954 L 1608.187 251.025 L 1679.535 -97.962 L 1287.098 0.189 L 971.96 -190.663 L 579.514 54.719 L 210.855 -168.849 L -68.609 60.176 L -478.886 -5.264 L -306.452 311.006 L -508.616 605.467 L -306.452 796.316 L -431.319 1172.568 L -50.776 1025.335 L 181.13 1248.908 L 661.619 1013.054 Z" fill-opacity=".49804" fill-rule="evenodd" filter="url(#a)" style="paint-order: fill;"/>
    <path d="M 625.569 1006.787 L 1061.277 1137.652 C 1141.974 1067.086 1216.466 990.632 1297.158 937.699 C 1402.688 967.103 1675.812 1031.794 1719.263 1049.433 L 1613.739 714.225 L 1775.129 443.703 L 1613.739 184.945 L 1688.226 -191.432 L 1278.537 -85.578 L 949.546 -291.41 L 539.855 -26.77 L 154.991 -267.884 L -136.758 -20.891 L -565.068 -91.463 L -385.052 249.632 L -596.105 567.2 L -385.052 773.037 L -515.411 1178.818 L -118.142 1020.031 L 123.959 1261.15 L 625.569 1006.787 Z" fill-rule="evenodd" style="paint-order: fill; stroke: rgb(255, 134, 63); stroke-miterlimit: 1; stroke-linejoin: bevel; stroke-width: 10px;"/>
  </g>
</svg>